PathFileType	4	(X/Y/Z)	C:/Users/opensim2020/Desktop/walking_exp_matlab/subject06_walking20_straight_02.trc																																																																																																																															
DataRate	CameraRate	NumFrames	NumMarkers	Units	OrigDataRate	OrigDataStartFrame	OrigNumFrames																																																																																																																											
100	100	5	43	mm	100	1320	105																																																																																																																											
Frame#	Time	LFHD			RFHD			LBHD			RBHD			C7			T10			CLAV			STRN			RBAK			LSHO			LUPA			LELB			LFRM			LWRA			LWRB			LFIN			RSHO			RUPA			RELB			RFRM			RWRA			RWRB			RFIN			LASI			RASI			LPSI			RPSI			LTHI			LKNE			LTIB			LANK			LHEE			LTOE			RTHI			RKNE			RTIB			RANK			RHEE			RTOE			*39			*40			*41			*42		
		X1	Y1	Z1	X2	Y2	Z2	X3	Y3	Z3	X4	Y4	Z4	X5	Y5	Z5	X6	Y6	Z6	X7	Y7	Z7	X8	Y8	Z8	X9	Y9	Z9	X10	Y10	Z10	X11	Y11	Z11	X12	Y12	Z12	X13	Y13	Z13	X14	Y14	Z14	X15	Y15	Z15	X16	Y16	Z16	X17	Y17	Z17	X18	Y18	Z18	X19	Y19	Z19	X20	Y20	Z20	X21	Y21	Z21	X22	Y22	Z22	X23	Y23	Z23	X24	Y24	Z24	X25	Y25	Z25	X26	Y26	Z26	X27	Y27	Z27	X28	Y28	Z28	X29	Y29	Z29	X30	Y30	Z30	X31	Y31	Z31	X32	Y32	Z32	X33	Y33	Z33	X34	Y34	Z34	X35	Y35	Z35	X36	Y36	Z36	X37	Y37	Z37	X38	Y38	Z38	X39	Y39	Z39	X40	Y40	Z40	X41	Y41	Z41	X42	Y42	Z42	X43	Y43	Z43
																																																																																																																																		
79	0.78	-2.48971	1653.55591	-1482.28076	-9.74789	1634.53015	-1351.552	-137.25708	1602.88037	-1492.46301	-142.98126	1589.35742	-1363.83093	-141.6806	1437.07373	-1441.32214	-164.31599	1106.24048	-1442.47473	-29.05081	1363.44775	-1438.75	17.40892	1189.07495	-1451.03149	-209.71359	1260.97815	-1370.3772	-84.21168	1395.52271	-1601.31567	-63.81195	1195.56165	-1674.28015	-49.58721	1084.30066	-1687.72693	48.6991	973.62073	-1704.52039	166.00905	927.78235	-1658.44995	123.20744	881.16302	-1691.06726	208.02649	850.95245	-1692.69751	-80.05555	1389.40723	-1277.65112	-148.53239	1200.35388	-1193.60242	-162.31737	1078.88293	-1179.3313	-171.81325	959.24878	-1158.68652	-139.18756	809.29834	-1182.41199	-195.04887	823.8089	-1146.0636	-176.8322	740.961	-1141.31909	6.77436	941.6026	-1551.66431	21.20635	963.61395	-1332.34546	-148.1319	969.29077	-1517.9082	-133.15268	984.31476	-1350.1731	-57.12944	617.26166	-1599.05591	-45.767	455.60809	-1583.87476	-248.66837	321.78195	-1571.86194	-392.85342	234.45612	-1533.8147	-420.5564	261.56543	-1486.61694	-365.98419	89.35016	-1531.03088	40.48571	641.26306	-1273.51172	81.42979	524.90369	-1307.4585	57.97393	259.58762	-1299.16028	37.55294	73.93819	-1337.50464	-5.10983	48.86954	-1379.32556	187.41264	39.63474	-1345.87781	-104.93819	1690.52466	-1425.63818	NaN	NaN	NaN	NaN	NaN	NaN	NaN	NaN	NaN
80	0.79	11.73294	1655.95984	-1481.68152	4.51424	1636.85107	-1350.92371	-122.71565	1605.35193	-1491.69312	-128.63516	1591.8418	-1363.17383	-127.70197	1439.45349	-1440.37305	-150.31299	1108.67236	-1440.75476	-14.96292	1365.79028	-1438.23792	31.34463	1191.41553	-1450.11914	-195.41676	1263.64233	-1368.59668	-70.70694	1397.39514	-1600.75098	-52.75753	1196.77087	-1672.9491	-39.0736	1085.04248	-1685.45996	55.74058	970.81946	-1702.72839	171.97552	921.01575	-1657.45251	127.23428	876.04382	-1689.86963	210.91913	842.5708	-1691.79858	-65.20823	1392.09546	-1276.91064	-131.31216	1202.21326	-1192.0835	-143.12152	1080.54028	-1177.45178	-150.38599	960.76105	-1157.12976	-114.869	811.68561	-1181.63428	-170.78676	824.78003	-1144.73169	-150.1812	742.77905	-1139.94226	20.26496	944.46655	-1551.08972	35.58813	964.89685	-1331.68945	-134.67029	971.6897	-1516.05383	-118.93824	986.39545	-1348.41589	-36.80026	620.28503	-1598.0824	-20.23268	459.12231	-1582.75891	-220.89403	324.15167	-1570.44861	-364.06638	234.32599	-1532.12732	-393.21249	260.93671	-1485.23486	-332.71387	91.00186	-1529.29089	50.9828	642.01202	-1273.65125	89.29893	524.75775	-1307.26685	60.35198	259.55054	-1299.63135	37.81192	74.08968	-1337.83411	-5.1768	48.97602	-1379.46362	187.40717	39.81871	-1346.17871	-90.59334	1692.97815	-1424.96838	NaN	NaN	NaN	NaN	NaN	NaN	NaN	NaN	NaN
81	0.8	25.98722	1658.32861	-1481.172	18.81366	1639.29102	-1350.44617	-108.78461	1607.87256	-1491.31042	-114.37384	1594.37659	-1362.68555	-113.57778	1441.94958	-1439.56738	-136.42258	1111.14539	-1438.90979	-0.90561	1368.21777	-1437.68188	45.11565	1193.7749	-1449.21912	-181.11163	1266.24097	-1366.76367	-57.26337	1399.40808	-1600.16528	-42.03625	1198.01807	-1671.60034	-28.71404	1086.03979	-1683.3136	62.31613	968.12909	-1700.9657	177.14371	914.08203	-1656.5509	130.38821	870.8949	-1688.81873	212.62035	834.11566	-1691.15051	-50.52267	1394.94275	-1276.25415	-114.20165	1204.29517	-1190.68701	-124.11976	1082.48682	-1175.90491	-128.93806	962.47461	-1155.83789	-90.40656	814.48694	-1181.06958	-146.11282	826.18958	-1143.4248	-123.25531	744.89191	-1138.62769	33.64673	947.53528	-1550.60889	49.84542	966.55231	-1331.25842	-121.28342	974.35876	-1514.40698	-104.7515	988.54572	-1346.79309	-16.39048	623.83752	-1597.28918	5.13164	463.13791	-1581.65393	-192.33028	325.30817	-1569.23889	-334.41962	232.58643	-1530.49683	-364.8035	258.25339	-1483.49304	-297.35483	90.79903	-1527.45972	61.29808	642.97504	-1273.74133	96.7264	524.57886	-1307.10889	62.45392	259.3609	-1299.99072	37.91843	74.22565	-1338.18518	-5.34404	49.06395	-1379.59949	187.24403	39.98484	-1346.60864	-76.31175	1695.45874	-1424.46179	NaN	NaN	NaN	NaN	NaN	NaN	NaN	NaN	NaN
82	0.81	40.23699	1660.67749	-1480.86377	33.03745	1641.71973	-1350.11084	-94.58836	1610.37427	-1490.90161	-100.21725	1597.00281	-1362.27344	-99.45057	1444.50586	-1438.76843	-122.577	1113.69995	-1437.09985	13.05498	1370.61597	-1437.16943	58.92094	1196.20508	-1448.3324	-166.89363	1269.05322	-1365.08374	-43.91795	1401.41223	-1599.46375	-30.97534	1199.49097	-1670.14941	-18.58278	1087.2395	-1681.25586	68.5791	965.67194	-1699.65466	181.49194	907.08783	-1655.79285	132.6884	865.88043	-1687.80591	213.19766	825.69641	-1690.62964	-35.96742	1397.8772	-1275.62549	-97.17577	1206.53918	-1189.27966	-105.20648	1084.64673	-1174.41882	-106.67398	964.63495	-1154.28259	-65.6173	817.70538	-1180.30725	-121.17039	827.91418	-1142.1344	-96.02457	747.45728	-1137.40051	47.13736	950.69769	-1550.05115	63.96239	968.62616	-1330.83545	-107.77711	977.07312	-1512.96741	-90.70596	990.72693	-1345.57837	3.94348	627.67383	-1596.79114	30.56539	467.57828	-1580.48535	-163.82513	325.47394	-1567.83972	-303.91046	229.26384	-1528.82959	-335.71277	253.65396	-1481.60242	-260.3418	89.91855	-1525.91821	71.21426	643.59576	-1273.94006	103.57207	524.13641	-1307.09741	64.86904	259.16714	-1300.33875	38.06765	74.3581	-1338.47974	-5.5334	49.13491	-1379.77625	187.06929	40.12214	-1347.3031	-61.99739	1697.96436	-1424.18323	NaN	NaN	NaN	NaN	NaN	NaN	NaN	NaN	NaN
83	0.82	54.39256	1662.86389	-1480.6521	47.29655	1644.09229	-1349.90137	-80.41757	1612.80139	-1490.62122	-86.02661	1599.58154	-1362.00891	-85.3722	1446.97375	-1437.98584	-108.81497	1116.26794	-1435.24414	26.90277	1372.93994	-1436.63147	72.71303	1198.59692	-1447.59143	-152.72574	1271.92102	-1363.21191	-30.59202	1403.39001	-1598.73853	-19.77541	1201.09973	-1668.75891	-8.6618	1088.55151	-1679.19214	74.06577	963.59491	-1697.97412	185.04663	900.16449	-1655.21436	134.18686	861.04218	-1686.84424	212.75888	817.38098	-1690.28577	-21.4685	1400.81531	-1275.05273	-80.24728	1208.93396	-1187.92334	-86.36018	1086.92798	-1173.11646	-84.94142	966.95795	-1152.99609	-40.53041	821.46735	-1179.3374	-95.99876	829.83557	-1140.97522	-68.44798	750.32611	-1136.32397	60.62608	953.7663	-1549.40979	77.82416	970.89319	-1330.30261	-94.2402	979.76514	-1511.84412	-76.77792	992.85272	-1344.58972	23.93376	631.54022	-1596.48315	55.45266	472.27124	-1579.87634	-135.38899	324.68506	-1566.63281	-272.61438	224.47815	-1527.19275	-305.80841	247.24187	-1479.74609	-221.74934	88.23391	-1524.8042	80.93729	643.90527	-1274.09082	110.31112	523.47479	-1307.22046	67.73573	258.94839	-1300.64136	38.18496	74.45431	-1338.74646	-5.77794	49.22945	-1379.86462	186.76855	40.50148	-1347.38757	-47.6945	1700.40649	-1423.97791	NaN	NaN	NaN	NaN	NaN	NaN	NaN	NaN	NaN
